<?xml version="1.0" encoding="UTF-8" standalone="no"?>
<svg
   xmlns:dc="http://purl.org/dc/elements/1.1/"
   xmlns:cc="http://creativecommons.org/ns#"
   xmlns:rdf="http://www.w3.org/1999/02/22-rdf-syntax-ns#"
   xmlns:svg="http://www.w3.org/2000/svg"
   xmlns="http://www.w3.org/2000/svg"
   xmlns:sodipodi="http://sodipodi.sourceforge.net/DTD/sodipodi-0.dtd"
   xmlns:inkscape="http://www.inkscape.org/namespaces/inkscape"
   version="1.1"
   id="Capa_1"
   x="0px"
   y="0px"
   viewBox="0 0 512 512"
   style="enable-background:new 0 0 512 512;"
   xml:space="preserve"
   sodipodi:docname="camera.svg"
   inkscape:version="1.0 (4035a4fb49, 2020-05-01)"><metadata
   id="metadata73"><rdf:RDF><cc:Work
       rdf:about=""><dc:format>image/svg+xml</dc:format><dc:type
         rdf:resource="http://purl.org/dc/dcmitype/StillImage" /></cc:Work></rdf:RDF></metadata><defs
   id="defs71" /><sodipodi:namedview
   inkscape:document-rotation="0"
   pagecolor="#ffffff"
   bordercolor="#666666"
   borderopacity="1"
   objecttolerance="10"
   gridtolerance="10"
   guidetolerance="10"
   inkscape:pageopacity="0"
   inkscape:pageshadow="2"
   inkscape:window-width="944"
   inkscape:window-height="480"
   id="namedview69"
   showgrid="false"
   inkscape:zoom="0.29408997"
   inkscape:cx="243.19499"
   inkscape:cy="214.24616"
   inkscape:window-x="0"
   inkscape:window-y="0"
   inkscape:window-maximized="0"
   inkscape:current-layer="Capa_1" />
<g
   id="g6"
   style="fill:#1a1a1a">
	<g
   id="g4"
   style="fill:#1a1a1a">
		<path
   d="M462,276.01c-5.53,0-9.99,4.452-9.99,9.99c0,5.911,5.065,10.526,10.99,9.938c5.118-0.508,8.99-4.792,8.99-9.938    C471.99,280.47,467.538,276.01,462,276.01z"
   id="path2"
   style="fill:#1a1a1a" />
	</g>
</g>
<g
   id="g12"
   style="fill:#1a1a1a">
	<g
   id="g10"
   style="fill:#1a1a1a">
		<path
   d="M256,236.01c-5.53,0-9.99,4.452-9.99,9.99c0,5.143,3.869,9.43,8.99,9.938c5.929,0.589,10.99-4.031,10.99-9.938    C265.99,240.47,261.538,236.01,256,236.01z"
   id="path8"
   style="fill:#1a1a1a" />
	</g>
</g>
<g
   id="g18"
   style="fill:#1a1a1a">
	<g
   id="g16"
   style="fill:#1a1a1a">
		<path
   d="M256,196c-71.683,0-130,58.318-130,130s58.317,130,130,130s130-58.318,130-130S327.683,196,256,196z M256,436    c-60.654,0-110-49.346-110-110s49.346-110,110-110s110,49.346,110,110S316.654,436,256,436z"
   id="path14"
   style="fill:#1a1a1a" />
	</g>
</g>
<g
   id="g24"
   style="fill:#1a1a1a">
	<g
   id="g22"
   style="fill:#1a1a1a">
		<path
   d="M299.574,247.267c-4.829-2.682-10.916-0.94-13.597,3.888c-2.682,4.828-0.94,10.916,3.888,13.597    C312.154,277.129,326,300.598,326,326c0,5.523,4.478,10,10,10c5.522,0,10-4.477,10-10    C346,293.337,328.211,263.168,299.574,247.267z"
   id="path20"
   style="fill:#1a1a1a" />
	</g>
</g>
<g
   id="g30"
   style="fill:#1a1a1a">
	<g
   id="g28"
   style="fill:#1a1a1a">
		<path
   d="M482,176h-10v-30c0-5.523-4.478-10-10-10h-40c-5.522,0-10,4.477-10,10v30h-75.981    c-9.603-5.129-19.661-9.317-30.019-12.503V136h30c16.542,0,30-13.458,30-30V46c0-16.542-13.458-30-30-30H176    c-16.542,0-30,13.458-30,30v60c0,16.542,13.458,30,30,30h30v27.497c-10.358,3.186-20.415,7.374-30.02,12.503    c-23.771,0-53.56,0-75.98,0v-30c0-5.523-4.478-10-10-10H50c-5.522,0-10,4.477-10,10v30H30c-16.542,0-30,13.458-30,30    c0,9.862,0,229.357,0,240c0,16.542,13.458,30,30,30h145.981c24.495,13.079,52.096,20,80.019,20c27.923,0,55.523-6.92,80.019-20    H482c16.542,0,30-13.458,30-30c0-9.862,0-229.357,0-240C512,189.458,498.542,176,482,176z M432,156h20v20h-20V156z M176,116    c-5.514,0-10-4.486-10-10V46c0-5.514,4.486-10,10-10h160c5.514,0,10,4.486,10,10v60c0,5.514-4.486,10-10,10H176z M286,136v22.662    c-9.863-1.756-19.906-2.662-30-2.662s-20.137,0.906-30,2.661V136H286z M60,156h20v20H60V156z M20,206c0-5.514,4.486-10.1,10-10.1    h116.471c-13.54,11.416-25.275,24.994-34.714,40.1H20V206z M20,255.9h81.051C91.17,277.778,86,301.774,86,326    c0,24.227,5.17,48.123,15.051,70H20V255.9z M30,456c-5.514,0-10-4.486-10-10v-30h91.757c9.44,15.107,21.175,28.585,34.714,40H30z     M256,476c-82.904,0-150-67.223-150-150c0-82.465,66.789-150,150-150c82.847,0,150,67.172,150,150    C406,409.086,338.602,476,256,476z M492,446c0,5.514-4.486,10-10,10H365.529c13.54-11.416,25.275-24.894,34.714-40H492V446z     M492,396h-81.051C420.83,374.122,426,350.226,426,326s-5.17-48.122-15.051-70H492V396z M492,236h-91.757    c-9.439-15.107-21.174-28.585-34.714-40H482c5.514,0,10,4.486,10,10V236z"
   id="path26"
   style="fill:#1a1a1a" />
	</g>
</g>
<g
   id="g36"
   style="fill:#1a1a1a">
	<g
   id="g34"
   style="fill:#1a1a1a">
		<path
   d="M316,56c-5.522,0-10,4.477-10,10v20c0,5.523,4.478,10,10,10c5.522,0,10-4.477,10-10V66C326,60.477,321.522,56,316,56z"
   id="path32"
   style="fill:#1a1a1a" />
	</g>
</g>
<g
   id="g38">
</g>
<g
   id="g40">
</g>
<g
   id="g42">
</g>
<g
   id="g44">
</g>
<g
   id="g46">
</g>
<g
   id="g48">
</g>
<g
   id="g50">
</g>
<g
   id="g52">
</g>
<g
   id="g54">
</g>
<g
   id="g56">
</g>
<g
   id="g58">
</g>
<g
   id="g60">
</g>
<g
   id="g62">
</g>
<g
   id="g64">
</g>
<g
   id="g66">
</g>
</svg>
